# xmcd
#
# Track frame offsets: 
#        150
#        27496
#        44341
#        73335
#        94718
#        126155
#        149109
#        166546
#        187921
#        207445
#        230455
#
# Disc length: 3394 seconds
#
# Revision: 0
# Processed by: cddbd v1.5.2PL0 Copyright (c) Steve Scherf et al.
# Submitted via: ExactAudioCopy v0.99pb5
#
DISCID=9f0d400b
DTITLE=Sturmwehr - Weltenwende
DYEAR=2012
DGENRE=RAC
TTITLE0=Ein Volk, ein Herz, ein Land
TTITLE1=Sein Leben galt der Sache
TTITLE2=Freiheit in ketten
TTITLE3=Deutsch das Land
TTITLE4=Helden sterben Einsam
TTITLE5=Herzen Brennen
TTITLE6=Geile Zeit
TTITLE7=Spür mich
TTITLE8=Krankes Spiel
TTITLE9=Sehnsucht
TTITLE10=Weltenwende
EXTD=
EXTT0=
EXTT1=
EXTT2=
EXTT3=
EXTT4=
EXTT5=
EXTT6=
EXTT7=
EXTT8=
EXTT9=
EXTT10=
PLAYORDER=
